<?xml version="1.0" standalone="no"?>
<!DOCTYPE svg PUBLIC "-//W3C//DTD SVG 20010904//EN"
 "http://www.w3.org/TR/2001/REC-SVG-20010904/DTD/svg10.dtd">
<svg version="1.0" xmlns="http://www.w3.org/2000/svg"
 width="297.000000pt" height="260.000000pt" viewBox="0 0 297.000000 260.000000"
 preserveAspectRatio="xMidYMid meet">

<g transform="translate(0.000000,260.000000) scale(0.100000,-0.100000)"
fill="#000000" stroke="none">
<path d="M0 1300 l0 -1300 1485 0 1485 0 0 1300 0 1300 -1485 0 -1485 0 0
-1300z m767 -588 c-16 -7 -16 -9 3 -25 24 -21 18 -37 -13 -36 -21 1 -21 1 1 8
l24 6 -21 19 c-22 20 -19 36 7 35 15 0 15 -1 -1 -7z m101 1 c-10 -2 -18 -9
-18 -14 0 -5 8 -10 18 -10 16 -1 16 -2 0 -6 -10 -2 -18 -8 -18 -13 0 -5 8 -11
18 -13 13 -4 11 -5 -5 -6 -20 -1 -23 4 -23 34 0 30 3 35 23 34 16 -1 18 -2 5
-6z m99 -15 c-4 -12 -1 -29 6 -37 7 -10 4 -9 -10 2 -21 18 -21 18 -26 0 -3
-10 -5 -1 -6 20 -1 31 2 37 20 37 17 0 20 -4 16 -22z m85 -18 c4 0 8 6 8 14 0
8 4 17 9 20 5 4 4 -10 -2 -29 -11 -38 -22 -45 -30 -17 -2 9 -8 26 -11 37 -5
15 -4 15 5 -2 7 -13 16 -23 21 -23z m75 -12 c-2 -13 -4 -5 -4 17 -1 22 1 32 4
23 2 -10 2 -28 0 -40z m86 45 c-16 -3 -23 -11 -23 -28 0 -13 6 -25 13 -28 7
-2 6 -3 -3 -3 -16 1 -25 29 -16 52 3 8 16 13 28 13 l23 -2 -22 -4z m74 -45
c-2 -13 -4 -5 -4 17 -1 22 1 32 4 23 2 -10 2 -28 0 -40z m108 17 c0 -25 -4
-30 -25 -30 -16 0 -26 6 -28 18 -6 30 6 49 30 45 18 -2 23 -9 23 -33z m160 0
c0 -23 -5 -31 -22 -33 -20 -3 -23 1 -23 33 0 32 3 36 23 33 17 -2 22 -10 22
-33z m93 28 c-10 -2 -18 -9 -18 -14 0 -5 8 -10 18 -10 16 -1 16 -2 0 -6 -10
-2 -18 -8 -18 -13 0 -5 8 -11 18 -13 13 -4 11 -5 -5 -6 -20 -1 -23 4 -23 34 0
30 3 35 23 34 16 -1 18 -2 5 -6z m160 0 c-11 -3 -19 -15 -19 -31 l-2 -27 -4
25 c-3 14 -10 28 -17 32 -6 4 5 7 24 7 19 -1 27 -3 18 -6z m90 -29 c9 -30 8
-33 -4 -23 -11 9 -17 9 -28 0 -12 -10 -13 -7 -4 23 6 20 14 36 18 36 4 0 12
-16 18 -36z m93 26 c8 12 9 10 4 -8 -4 -13 -1 -30 7 -40 12 -15 11 -16 -4 -3
-15 11 -21 11 -35 0 -16 -13 -17 -12 -5 3 8 10 11 27 7 40 -5 18 -4 20 4 8 10
-13 12 -13 22 0z m66 -42 c-2 -13 -4 -5 -4 17 -1 22 1 32 4 23 2 -10 2 -28 0
-40z m70 44 c-16 -7 -16 -9 3 -25 24 -21 18 -37 -13 -36 -21 1 -21 1 1 8 l24
6 -21 19 c-22 20 -19 36 7 35 15 0 15 -1 -1 -7z m-1092 -167 c0 -23 -5 -31
-22 -33 -20 -3 -23 1 -23 33 0 32 3 36 23 33 17 -2 22 -10 22 -33z m72 -17
c-2 -13 -4 -5 -4 17 -1 22 1 32 4 23 2 -10 2 -28 0 -40z m81 45 c-10 -2 -18
-9 -18 -14 0 -5 8 -10 18 -10 15 -1 15 -2 0 -6 -9 -2 -19 -12 -21 -21 -3 -9
-5 0 -6 21 -1 32 2 37 22 36 16 -1 18 -2 5 -6z m90 0 c-10 -2 -18 -9 -18 -14
0 -5 8 -10 18 -10 16 -1 16 -2 0 -6 -10 -2 -18 -8 -18 -13 0 -5 8 -11 18 -13
13 -4 11 -5 -5 -6 -20 -1 -23 4 -23 34 0 30 3 35 23 34 16 -1 18 -2 5 -6z m89
-15 c-4 -12 -1 -29 6 -37 7 -10 4 -9 -10 2 -21 18 -21 18 -26 0 -3 -10 -5 -1
-6 20 -1 31 2 37 20 37 17 0 20 -4 16 -22z m116 0 c3 20 4 16 5 -13 l1 -40
-24 27 -24 28 -4 -28 c-3 -20 -4 -16 -5 13 l-1 40 24 -27 24 -28 4 28z m85 15
c-10 -2 -18 -9 -18 -14 0 -5 8 -10 18 -10 16 -1 16 -2 0 -6 -10 -2 -18 -8 -18
-13 0 -5 8 -11 18 -13 13 -4 11 -5 -5 -6 -20 -1 -23 4 -23 34 0 30 3 35 23 34
16 -1 18 -2 5 -6z m95 0 c-16 -3 -23 -11 -23 -28 0 -13 6 -25 13 -28 7 -2 6
-3 -3 -3 -16 1 -25 29 -16 52 3 8 16 13 28 13 l23 -2 -22 -4z m64 -45 c-2 -13
-4 -5 -4 17 -1 22 1 32 4 23 2 -10 2 -28 0 -40z m91 16 c9 -30 8 -33 -4 -23
-11 9 -17 9 -28 0 -12 -10 -13 -7 -4 23 6 20 14 36 18 36 4 0 12 -16 18 -36z
m90 -27 c12 -3 10 -5 -5 -6 -20 -1 -23 3 -21 37 1 36 1 36 5 5 3 -19 11 -34
21 -36z"/>
<path d="M940 700 c0 -5 5 -10 10 -10 6 0 10 5 10 10 0 6 -4 10 -10 10 -5 0
-10 -4 -10 -10z"/>
<path d="M1350 685 c0 -18 5 -25 20 -25 15 0 20 7 20 25 0 18 -5 25 -20 25
-15 0 -20 -7 -20 -25z"/>
<path d="M1520 685 c0 -16 6 -25 15 -25 9 0 15 9 15 25 0 16 -6 25 -15 25 -9
0 -15 -9 -15 -25z"/>
<path d="M1000 545 c0 -16 6 -25 15 -25 9 0 15 9 15 25 0 16 -6 25 -15 25 -9
0 -15 -9 -15 -25z"/>
<path d="M1340 560 c0 -5 5 -10 10 -10 6 0 10 5 10 10 0 6 -4 10 -10 10 -5 0
-10 -4 -10 -10z"/>
</g>
</svg>
